# xmcd CD database file
#
# Track frame offsets:
#	150
#	15947
#	28352
#	40471
#	53286
#	74501
#	85645
#	98779
#	110198
#	128666
#	143656
#	156624
#
# Disc length: 2221 seconds
#
# Revision: 0
# Processed by: cddbd v1.5PL3 Copyright (c) Steve Scherf et al.
# Submitted via: CDex 1.51
#
DISCID=9e08ab0c
DTITLE=Varios - A bailar salsa
DYEAR=1900
DGENRE=Salsa
TTITLE0=Pulpa de tamarindo
TTITLE1=Anacaona
TTITLE2=El yerberito moderno
TTITLE3=Mani tostao
TTITLE4=Sopa de caracol
TTITLE5=Salsa en trompeta
TTITLE6=A burujon puñao
TTITLE7=El coquero
TTITLE8=Como abeja al panal
TTITLE9=Tu voz
TTITLE10=La traidora
TTITLE11=Mambo nro. 5
EXTD=
EXTT0=
EXTT1=
EXTT2=
EXTT3=
EXTT4=
EXTT5=
EXTT6=
EXTT7=
EXTT8=
EXTT9=
EXTT10=
EXTT11=
PLAYORDER=
